<svg xmlns="http://www.w3.org/2000/svg" viewBox="115 432 820 108" role="img" aria-label="Crucible"><defs><style>.cls-1,.cls-2{fill:none;stroke:#fff;stroke-miterlimit:10;}.cls-1{stroke-width:3px;}.cls-2{stroke-width:2px;}.cls-3{fill:#fff;}</style></defs><polygon class="cls-1" points="119.6 460.4 160.41 436.82 203.94 460.4 203.94 513 161.77 535.67 119.6 515.72 119.6 460.4"/><polygon class="cls-2" points="140.69 473.33 161.09 461.54 182.86 473.33 182.86 499.63 161.77 510.96 140.69 500.99 140.69 473.33"/><path class="cls-3" d="M315.58,526a40.77,40.77,0,0,1-15-2.69,35.18,35.18,0,0,1-11.9-7.63,35.7,35.7,0,0,1-7.87-11.53,38.49,38.49,0,0,1,0-29.07,35.3,35.3,0,0,1,19.87-19.16,42.81,42.81,0,0,1,30.19.1,31.13,31.13,0,0,1,11.84,8.28l-6.61,6.41a26.37,26.37,0,0,0-9.15-6.36,28.54,28.54,0,0,0-10.87-2.08,30,30,0,0,0-11.13,2,26.75,26.75,0,0,0-8.9,5.7,25.64,25.64,0,0,0-5.84,8.69,29.6,29.6,0,0,0,0,21.85,25.84,25.84,0,0,0,5.84,8.69,26.57,26.57,0,0,0,8.9,5.69,29.84,29.84,0,0,0,11.13,2A28.36,28.36,0,0,0,327,514.85a25.86,25.86,0,0,0,9.15-6.45l6.61,6.4a31.58,31.58,0,0,1-11.84,8.33A40.07,40.07,0,0,1,315.58,526Z"/><path class="cls-3" d="M375,525.17V454h27.75a39.15,39.15,0,0,1,16,2.94,22.68,22.68,0,0,1,10.16,8.54,24.31,24.31,0,0,1,3.56,13.32,24,24,0,0,1-3.56,13.26,22.64,22.64,0,0,1-10.16,8.49,39,39,0,0,1-16,2.95H380.63l4.57-4.68v26.33Zm10.16-25.31-4.57-5h21.85q9.76,0,14.79-4.22t5-11.84q0-7.62-5-11.79t-14.79-4.17H380.63l4.57-5.08Zm37.41,25.31-18.09-25.82h10.87l18.3,25.82Z"/><path class="cls-3" d="M496.2,526q-14,0-22.06-8t-8-23.48V454h10.17v40q0,11.9,5.23,17.39t14.79,5.48q9.66,0,14.89-5.48t5.24-17.39V454h9.86v40.45q0,15.45-8,23.48T496.2,526Z"/><path class="cls-3" d="M596.72,526a40.77,40.77,0,0,1-15-2.69,35.13,35.13,0,0,1-11.89-7.63A35.73,35.73,0,0,1,562,504.13a38.49,38.49,0,0,1,0-29.07,35.38,35.38,0,0,1,19.87-19.16A42.81,42.81,0,0,1,612,456a31.05,31.05,0,0,1,11.84,8.28l-6.61,6.41a26.43,26.43,0,0,0-9.14-6.36,28.6,28.6,0,0,0-10.88-2.08,30,30,0,0,0-11.13,2,26.7,26.7,0,0,0-8.89,5.7,25.52,25.52,0,0,0-5.85,8.69,29.73,29.73,0,0,0,0,21.85,25.72,25.72,0,0,0,5.85,8.69,26.52,26.52,0,0,0,8.89,5.69,29.84,29.84,0,0,0,11.13,2,28.41,28.41,0,0,0,10.88-2.08,25.91,25.91,0,0,0,9.14-6.45l6.61,6.4A31.5,31.5,0,0,1,612,523.13,40,40,0,0,1,596.72,526Z"/><path class="cls-3" d="M656.18,525.17V454h10.17v71.15Z"/><path class="cls-3" d="M705.48,525.17V454H737.4q12.3,0,18.9,4.93a15.87,15.87,0,0,1,6.61,13.46,17.42,17.42,0,0,1-2.59,9.76,17.16,17.16,0,0,1-7,6.1,21.34,21.34,0,0,1-9.46,2.14l1.83-3.05a25.76,25.76,0,0,1,10.78,2.13,17.45,17.45,0,0,1,7.42,6.25A18,18,0,0,1,766.67,506q0,9.15-6.86,14.18t-20.38,5Zm10.17-8.24H739q8.44,0,12.91-2.84t4.48-9q0-6.19-4.48-9T739,493.25H714.73V485h21.75q7.72,0,12-2.85t4.27-8.54a9.57,9.57,0,0,0-4.27-8.53q-4.28-2.85-12-2.85H715.65Z"/><path class="cls-3" d="M800.21,525.17V454h10.17v62.31H848.9v8.84Z"/><path class="cls-3" d="M888.54,516.33H930v8.84H878.38V454h50.21v8.84H888.54Zm-.91-31.62h36.59v8.64H887.63Z"/></svg>
